<?xml version="1.0" encoding="UTF-8" standalone="no"?>
<!-- Created with Inkscape (http://www.inkscape.org/) -->

<svg
   width="18.869236mm"
   height="18.869236mm"
   viewBox="0 0 18.869236 18.869236"
   version="1.1"
   id="svg1"
   xml:space="preserve"
   inkscape:version="1.3 (0e150ed6c4, 2023-07-21)"
   sodipodi:docname="drawing-39.svg"
   xmlns:inkscape="http://www.inkscape.org/namespaces/inkscape"
   xmlns:sodipodi="http://sodipodi.sourceforge.net/DTD/sodipodi-0.dtd"
   xmlns="http://www.w3.org/2000/svg"
   xmlns:svg="http://www.w3.org/2000/svg"><sodipodi:namedview
     id="namedview1"
     pagecolor="#ffffff"
     bordercolor="#000000"
     borderopacity="0.25"
     inkscape:showpageshadow="2"
     inkscape:pageopacity="0.0"
     inkscape:pagecheckerboard="0"
     inkscape:deskcolor="#d1d1d1"
     inkscape:document-units="mm"
     inkscape:zoom="0.70710678"
     inkscape:cx="441.23463"
     inkscape:cy="905.80378"
     inkscape:window-width="1440"
     inkscape:window-height="837"
     inkscape:window-x="-8"
     inkscape:window-y="-8"
     inkscape:window-maximized="1"
     inkscape:current-layer="layer1" /><defs
     id="defs1" /><g
     inkscape:label="Layer 1"
     inkscape:groupmode="layer"
     id="layer1"
     transform="translate(250.19984,-11.103297)"><g
       id="g105"
       transform="matrix(0.58863016,0,0,0.58863016,-276.22576,-41.830944)"><g
         id="g86"><g
           id="g82"
           transform="translate(36.033976)"><path
             id="path79"
             style="fill:#b37e58;fill-opacity:1;stroke:none;stroke-width:0.531;stroke-linecap:round;stroke-linejoin:round;stroke-dasharray:none;stroke-opacity:1"
             d="m 24.208619,89.927844 c -1.203189,0.245588 -0.644126,1.675682 -0.331763,2.425692 0.103028,0.391501 -0.258382,0.699182 -0.258382,0.699182 0,0 -0.06921,3.653706 0,3.701066 0.06921,0.04735 0.236532,0.356984 0.258382,0.520899 0.02185,0.163914 -0.139116,0.320621 -0.225826,0.392741 -0.08671,0.07212 -0.01093,2.910966 0,3.278866 0.01093,0.3679 0.163929,0.34611 0.222208,0.66301 0.05828,0.3169 -0.185893,0.4879 -0.280603,0.62632 -0.0947,0.13842 0.02584,0.97979 0.02584,0.97979 h 0.590145 0.590144 c 0,0 0.120027,-0.84137 0.02532,-0.97979 -0.09471,-0.13842 -0.338884,-0.30942 -0.280603,-0.62632 0.05828,-0.3169 0.211281,-0.29511 0.222208,-0.66301 0.01093,-0.3679 0.08671,-3.20675 0,-3.278866 -0.08671,-0.07212 -0.247681,-0.228827 -0.225826,-0.392741 0.02185,-0.163915 0.18969,-0.473547 0.258899,-0.520899 0.06921,-0.04736 0,-3.701066 0,-3.701066 0,0 -0.361926,-0.307681 -0.258899,-0.699182 0.312363,-0.75001 0.871943,-2.180104 -0.331245,-2.425692 z" /><rect
             style="fill:#9b562a;fill-opacity:1;stroke:none;stroke-width:0.531;stroke-linecap:round;stroke-linejoin:round;stroke-dasharray:none;stroke-opacity:1"
             id="rect80"
             width="1.4146808"
             height="0.35697117"
             x="23.471308"
             y="92.444603"
             ry="0.17848559" /><rect
             style="fill:#9b562a;fill-opacity:1;stroke:none;stroke-width:0.531;stroke-linecap:round;stroke-linejoin:round;stroke-dasharray:none;stroke-opacity:1"
             id="rect81"
             width="1.4146808"
             height="0.35697117"
             x="23.471308"
             y="97.045868"
             ry="0.17848559" /><rect
             style="fill:#9b562a;fill-opacity:1;stroke:none;stroke-width:0.531;stroke-linecap:round;stroke-linejoin:round;stroke-dasharray:none;stroke-opacity:1"
             id="rect82"
             width="1.4146808"
             height="0.35697117"
             x="23.471308"
             y="101.51893"
             ry="0.17848559" /></g><g
           id="g85"
           transform="matrix(1,0,0,-1,36.033976,211.91187)"><path
             id="path82"
             style="fill:#b37e58;fill-opacity:1;stroke:none;stroke-width:0.531;stroke-linecap:round;stroke-linejoin:round;stroke-dasharray:none;stroke-opacity:1"
             d="m 24.208619,89.927844 c -1.203189,0.245588 -0.644126,1.675682 -0.331763,2.425692 0.103028,0.391501 -0.258382,0.699182 -0.258382,0.699182 0,0 -0.06921,3.653706 0,3.701066 0.06921,0.04735 0.236532,0.356984 0.258382,0.520899 0.02185,0.163914 -0.139116,0.320621 -0.225826,0.392741 -0.08671,0.07212 -0.01093,2.910966 0,3.278866 0.01093,0.3679 0.163929,0.34611 0.222208,0.66301 0.05828,0.3169 -0.185893,0.4879 -0.280603,0.62632 -0.0947,0.13842 0.02584,0.97979 0.02584,0.97979 h 0.590145 0.590144 c 0,0 0.120027,-0.84137 0.02532,-0.97979 -0.09471,-0.13842 -0.338884,-0.30942 -0.280603,-0.62632 0.05828,-0.3169 0.211281,-0.29511 0.222208,-0.66301 0.01093,-0.3679 0.08671,-3.20675 0,-3.278866 -0.08671,-0.07212 -0.247681,-0.228827 -0.225826,-0.392741 0.02185,-0.163915 0.18969,-0.473547 0.258899,-0.520899 0.06921,-0.04736 0,-3.701066 0,-3.701066 0,0 -0.361926,-0.307681 -0.258899,-0.699182 0.312363,-0.75001 0.871943,-2.180104 -0.331245,-2.425692 z" /><rect
             style="fill:#9b562a;fill-opacity:1;stroke:none;stroke-width:0.531;stroke-linecap:round;stroke-linejoin:round;stroke-dasharray:none;stroke-opacity:1"
             id="rect83"
             width="1.4146808"
             height="0.35697117"
             x="23.471308"
             y="92.444603"
             ry="0.17848559" /><rect
             style="fill:#9b562a;fill-opacity:1;stroke:none;stroke-width:0.531;stroke-linecap:round;stroke-linejoin:round;stroke-dasharray:none;stroke-opacity:1"
             id="rect84"
             width="1.4146808"
             height="0.35697117"
             x="23.471308"
             y="97.045868"
             ry="0.17848559" /><rect
             style="fill:#9b562a;fill-opacity:1;stroke:none;stroke-width:0.531;stroke-linecap:round;stroke-linejoin:round;stroke-dasharray:none;stroke-opacity:1"
             id="rect85"
             width="1.4146808"
             height="0.35697117"
             x="23.471308"
             y="101.51893"
             ry="0.17848559" /></g></g><g
         id="g92"
         transform="rotate(90,60.242478,105.95594)"><g
           id="g88"
           transform="translate(36.033976)"><path
             id="path86"
             style="fill:#b37e58;fill-opacity:1;stroke:none;stroke-width:0.531;stroke-linecap:round;stroke-linejoin:round;stroke-dasharray:none;stroke-opacity:1"
             d="m 24.208619,89.927844 c -1.203189,0.245588 -0.644126,1.675682 -0.331763,2.425692 0.103028,0.391501 -0.258382,0.699182 -0.258382,0.699182 0,0 -0.06921,3.653706 0,3.701066 0.06921,0.04735 0.236532,0.356984 0.258382,0.520899 0.02185,0.163914 -0.139116,0.320621 -0.225826,0.392741 -0.08671,0.07212 -0.01093,2.910966 0,3.278866 0.01093,0.3679 0.163929,0.34611 0.222208,0.66301 0.05828,0.3169 -0.185893,0.4879 -0.280603,0.62632 -0.0947,0.13842 0.02584,0.97979 0.02584,0.97979 h 0.590145 0.590144 c 0,0 0.120027,-0.84137 0.02532,-0.97979 -0.09471,-0.13842 -0.338884,-0.30942 -0.280603,-0.62632 0.05828,-0.3169 0.211281,-0.29511 0.222208,-0.66301 0.01093,-0.3679 0.08671,-3.20675 0,-3.278866 -0.08671,-0.07212 -0.247681,-0.228827 -0.225826,-0.392741 0.02185,-0.163915 0.18969,-0.473547 0.258899,-0.520899 0.06921,-0.04736 0,-3.701066 0,-3.701066 0,0 -0.361926,-0.307681 -0.258899,-0.699182 0.312363,-0.75001 0.871943,-2.180104 -0.331245,-2.425692 z" /><rect
             style="fill:#9b562a;fill-opacity:1;stroke:none;stroke-width:0.531;stroke-linecap:round;stroke-linejoin:round;stroke-dasharray:none;stroke-opacity:1"
             id="rect86"
             width="1.4146808"
             height="0.35697117"
             x="23.471308"
             y="92.444603"
             ry="0.17848559" /><rect
             style="fill:#9b562a;fill-opacity:1;stroke:none;stroke-width:0.531;stroke-linecap:round;stroke-linejoin:round;stroke-dasharray:none;stroke-opacity:1"
             id="rect87"
             width="1.4146808"
             height="0.35697117"
             x="23.471308"
             y="97.045868"
             ry="0.17848559" /><rect
             style="fill:#9b562a;fill-opacity:1;stroke:none;stroke-width:0.531;stroke-linecap:round;stroke-linejoin:round;stroke-dasharray:none;stroke-opacity:1"
             id="rect88"
             width="1.4146808"
             height="0.35697117"
             x="23.471308"
             y="101.51893"
             ry="0.17848559" /></g><g
           id="g91"
           transform="matrix(1,0,0,-1,36.033976,211.91187)"><path
             id="path88"
             style="fill:#b37e58;fill-opacity:1;stroke:none;stroke-width:0.531;stroke-linecap:round;stroke-linejoin:round;stroke-dasharray:none;stroke-opacity:1"
             d="m 24.208619,89.927844 c -1.203189,0.245588 -0.644126,1.675682 -0.331763,2.425692 0.103028,0.391501 -0.258382,0.699182 -0.258382,0.699182 0,0 -0.06921,3.653706 0,3.701066 0.06921,0.04735 0.236532,0.356984 0.258382,0.520899 0.02185,0.163914 -0.139116,0.320621 -0.225826,0.392741 -0.08671,0.07212 -0.01093,2.910966 0,3.278866 0.01093,0.3679 0.163929,0.34611 0.222208,0.66301 0.05828,0.3169 -0.185893,0.4879 -0.280603,0.62632 -0.0947,0.13842 0.02584,0.97979 0.02584,0.97979 h 0.590145 0.590144 c 0,0 0.120027,-0.84137 0.02532,-0.97979 -0.09471,-0.13842 -0.338884,-0.30942 -0.280603,-0.62632 0.05828,-0.3169 0.211281,-0.29511 0.222208,-0.66301 0.01093,-0.3679 0.08671,-3.20675 0,-3.278866 -0.08671,-0.07212 -0.247681,-0.228827 -0.225826,-0.392741 0.02185,-0.163915 0.18969,-0.473547 0.258899,-0.520899 0.06921,-0.04736 0,-3.701066 0,-3.701066 0,0 -0.361926,-0.307681 -0.258899,-0.699182 0.312363,-0.75001 0.871943,-2.180104 -0.331245,-2.425692 z" /><rect
             style="fill:#9b562a;fill-opacity:1;stroke:none;stroke-width:0.531;stroke-linecap:round;stroke-linejoin:round;stroke-dasharray:none;stroke-opacity:1"
             id="rect89"
             width="1.4146808"
             height="0.35697117"
             x="23.471308"
             y="92.444603"
             ry="0.17848559" /><rect
             style="fill:#9b562a;fill-opacity:1;stroke:none;stroke-width:0.531;stroke-linecap:round;stroke-linejoin:round;stroke-dasharray:none;stroke-opacity:1"
             id="rect90"
             width="1.4146808"
             height="0.35697117"
             x="23.471308"
             y="97.045868"
             ry="0.17848559" /><rect
             style="fill:#9b562a;fill-opacity:1;stroke:none;stroke-width:0.531;stroke-linecap:round;stroke-linejoin:round;stroke-dasharray:none;stroke-opacity:1"
             id="rect91"
             width="1.4146808"
             height="0.35697117"
             x="23.471308"
             y="101.51893"
             ry="0.17848559" /></g></g><g
         id="g98"
         transform="rotate(43.506023,60.242504,105.95596)"><g
           id="g94"
           transform="translate(36.033976)"><path
             id="path92"
             style="fill:#b37e58;fill-opacity:1;stroke:none;stroke-width:0.531;stroke-linecap:round;stroke-linejoin:round;stroke-dasharray:none;stroke-opacity:1"
             d="m 24.208619,89.927844 c -1.203189,0.245588 -0.644126,1.675682 -0.331763,2.425692 0.103028,0.391501 -0.258382,0.699182 -0.258382,0.699182 0,0 -0.06921,3.653706 0,3.701066 0.06921,0.04735 0.236532,0.356984 0.258382,0.520899 0.02185,0.163914 -0.139116,0.320621 -0.225826,0.392741 -0.08671,0.07212 -0.01093,2.910966 0,3.278866 0.01093,0.3679 0.163929,0.34611 0.222208,0.66301 0.05828,0.3169 -0.185893,0.4879 -0.280603,0.62632 -0.0947,0.13842 0.02584,0.97979 0.02584,0.97979 h 0.590145 0.590144 c 0,0 0.120027,-0.84137 0.02532,-0.97979 -0.09471,-0.13842 -0.338884,-0.30942 -0.280603,-0.62632 0.05828,-0.3169 0.211281,-0.29511 0.222208,-0.66301 0.01093,-0.3679 0.08671,-3.20675 0,-3.278866 -0.08671,-0.07212 -0.247681,-0.228827 -0.225826,-0.392741 0.02185,-0.163915 0.18969,-0.473547 0.258899,-0.520899 0.06921,-0.04736 0,-3.701066 0,-3.701066 0,0 -0.361926,-0.307681 -0.258899,-0.699182 0.312363,-0.75001 0.871943,-2.180104 -0.331245,-2.425692 z" /><rect
             style="fill:#9b562a;fill-opacity:1;stroke:none;stroke-width:0.531;stroke-linecap:round;stroke-linejoin:round;stroke-dasharray:none;stroke-opacity:1"
             id="rect92"
             width="1.4146808"
             height="0.35697117"
             x="23.471308"
             y="92.444603"
             ry="0.17848559" /><rect
             style="fill:#9b562a;fill-opacity:1;stroke:none;stroke-width:0.531;stroke-linecap:round;stroke-linejoin:round;stroke-dasharray:none;stroke-opacity:1"
             id="rect93"
             width="1.4146808"
             height="0.35697117"
             x="23.471308"
             y="97.045868"
             ry="0.17848559" /><rect
             style="fill:#9b562a;fill-opacity:1;stroke:none;stroke-width:0.531;stroke-linecap:round;stroke-linejoin:round;stroke-dasharray:none;stroke-opacity:1"
             id="rect94"
             width="1.4146808"
             height="0.35697117"
             x="23.471308"
             y="101.51893"
             ry="0.17848559" /></g><g
           id="g97"
           transform="matrix(1,0,0,-1,36.033976,211.91187)"><path
             id="path94"
             style="fill:#b37e58;fill-opacity:1;stroke:none;stroke-width:0.531;stroke-linecap:round;stroke-linejoin:round;stroke-dasharray:none;stroke-opacity:1"
             d="m 24.208619,89.927844 c -1.203189,0.245588 -0.644126,1.675682 -0.331763,2.425692 0.103028,0.391501 -0.258382,0.699182 -0.258382,0.699182 0,0 -0.06921,3.653706 0,3.701066 0.06921,0.04735 0.236532,0.356984 0.258382,0.520899 0.02185,0.163914 -0.139116,0.320621 -0.225826,0.392741 -0.08671,0.07212 -0.01093,2.910966 0,3.278866 0.01093,0.3679 0.163929,0.34611 0.222208,0.66301 0.05828,0.3169 -0.185893,0.4879 -0.280603,0.62632 -0.0947,0.13842 0.02584,0.97979 0.02584,0.97979 h 0.590145 0.590144 c 0,0 0.120027,-0.84137 0.02532,-0.97979 -0.09471,-0.13842 -0.338884,-0.30942 -0.280603,-0.62632 0.05828,-0.3169 0.211281,-0.29511 0.222208,-0.66301 0.01093,-0.3679 0.08671,-3.20675 0,-3.278866 -0.08671,-0.07212 -0.247681,-0.228827 -0.225826,-0.392741 0.02185,-0.163915 0.18969,-0.473547 0.258899,-0.520899 0.06921,-0.04736 0,-3.701066 0,-3.701066 0,0 -0.361926,-0.307681 -0.258899,-0.699182 0.312363,-0.75001 0.871943,-2.180104 -0.331245,-2.425692 z" /><rect
             style="fill:#9b562a;fill-opacity:1;stroke:none;stroke-width:0.531;stroke-linecap:round;stroke-linejoin:round;stroke-dasharray:none;stroke-opacity:1"
             id="rect95"
             width="1.4146808"
             height="0.35697117"
             x="23.471308"
             y="92.444603"
             ry="0.17848559" /><rect
             style="fill:#9b562a;fill-opacity:1;stroke:none;stroke-width:0.531;stroke-linecap:round;stroke-linejoin:round;stroke-dasharray:none;stroke-opacity:1"
             id="rect96"
             width="1.4146808"
             height="0.35697117"
             x="23.471308"
             y="97.045868"
             ry="0.17848559" /><rect
             style="fill:#9b562a;fill-opacity:1;stroke:none;stroke-width:0.531;stroke-linecap:round;stroke-linejoin:round;stroke-dasharray:none;stroke-opacity:1"
             id="rect97"
             width="1.4146808"
             height="0.35697117"
             x="23.471308"
             y="101.51893"
             ry="0.17848559" /></g></g><g
         id="g104"
         transform="matrix(-0.72530201,0.68843082,0.68843082,0.72530201,30.993293,-12.366907)"><g
           id="g100"
           transform="translate(36.033976)"><path
             id="path98"
             style="fill:#b37e58;fill-opacity:1;stroke:none;stroke-width:0.531;stroke-linecap:round;stroke-linejoin:round;stroke-dasharray:none;stroke-opacity:1"
             d="m 24.208619,89.927844 c -1.203189,0.245588 -0.644126,1.675682 -0.331763,2.425692 0.103028,0.391501 -0.258382,0.699182 -0.258382,0.699182 0,0 -0.06921,3.653706 0,3.701066 0.06921,0.04735 0.236532,0.356984 0.258382,0.520899 0.02185,0.163914 -0.139116,0.320621 -0.225826,0.392741 -0.08671,0.07212 -0.01093,2.910966 0,3.278866 0.01093,0.3679 0.163929,0.34611 0.222208,0.66301 0.05828,0.3169 -0.185893,0.4879 -0.280603,0.62632 -0.0947,0.13842 0.02584,0.97979 0.02584,0.97979 h 0.590145 0.590144 c 0,0 0.120027,-0.84137 0.02532,-0.97979 -0.09471,-0.13842 -0.338884,-0.30942 -0.280603,-0.62632 0.05828,-0.3169 0.211281,-0.29511 0.222208,-0.66301 0.01093,-0.3679 0.08671,-3.20675 0,-3.278866 -0.08671,-0.07212 -0.247681,-0.228827 -0.225826,-0.392741 0.02185,-0.163915 0.18969,-0.473547 0.258899,-0.520899 0.06921,-0.04736 0,-3.701066 0,-3.701066 0,0 -0.361926,-0.307681 -0.258899,-0.699182 0.312363,-0.75001 0.871943,-2.180104 -0.331245,-2.425692 z" /><rect
             style="fill:#9b562a;fill-opacity:1;stroke:none;stroke-width:0.531;stroke-linecap:round;stroke-linejoin:round;stroke-dasharray:none;stroke-opacity:1"
             id="rect98"
             width="1.4146808"
             height="0.35697117"
             x="23.471308"
             y="92.444603"
             ry="0.17848559" /><rect
             style="fill:#9b562a;fill-opacity:1;stroke:none;stroke-width:0.531;stroke-linecap:round;stroke-linejoin:round;stroke-dasharray:none;stroke-opacity:1"
             id="rect99"
             width="1.4146808"
             height="0.35697117"
             x="23.471308"
             y="97.045868"
             ry="0.17848559" /><rect
             style="fill:#9b562a;fill-opacity:1;stroke:none;stroke-width:0.531;stroke-linecap:round;stroke-linejoin:round;stroke-dasharray:none;stroke-opacity:1"
             id="rect100"
             width="1.4146808"
             height="0.35697117"
             x="23.471308"
             y="101.51893"
             ry="0.17848559" /></g><g
           id="g103"
           transform="matrix(1,0,0,-1,36.033976,211.91187)"><path
             id="path100"
             style="fill:#b37e58;fill-opacity:1;stroke:none;stroke-width:0.531;stroke-linecap:round;stroke-linejoin:round;stroke-dasharray:none;stroke-opacity:1"
             d="m 24.208619,89.927844 c -1.203189,0.245588 -0.644126,1.675682 -0.331763,2.425692 0.103028,0.391501 -0.258382,0.699182 -0.258382,0.699182 0,0 -0.06921,3.653706 0,3.701066 0.06921,0.04735 0.236532,0.356984 0.258382,0.520899 0.02185,0.163914 -0.139116,0.320621 -0.225826,0.392741 -0.08671,0.07212 -0.01093,2.910966 0,3.278866 0.01093,0.3679 0.163929,0.34611 0.222208,0.66301 0.05828,0.3169 -0.185893,0.4879 -0.280603,0.62632 -0.0947,0.13842 0.02584,0.97979 0.02584,0.97979 h 0.590145 0.590144 c 0,0 0.120027,-0.84137 0.02532,-0.97979 -0.09471,-0.13842 -0.338884,-0.30942 -0.280603,-0.62632 0.05828,-0.3169 0.211281,-0.29511 0.222208,-0.66301 0.01093,-0.3679 0.08671,-3.20675 0,-3.278866 -0.08671,-0.07212 -0.247681,-0.228827 -0.225826,-0.392741 0.02185,-0.163915 0.18969,-0.473547 0.258899,-0.520899 0.06921,-0.04736 0,-3.701066 0,-3.701066 0,0 -0.361926,-0.307681 -0.258899,-0.699182 0.312363,-0.75001 0.871943,-2.180104 -0.331245,-2.425692 z" /><rect
             style="fill:#9b562a;fill-opacity:1;stroke:none;stroke-width:0.531;stroke-linecap:round;stroke-linejoin:round;stroke-dasharray:none;stroke-opacity:1"
             id="rect101"
             width="1.4146808"
             height="0.35697117"
             x="23.471308"
             y="92.444603"
             ry="0.17848559" /><rect
             style="fill:#9b562a;fill-opacity:1;stroke:none;stroke-width:0.531;stroke-linecap:round;stroke-linejoin:round;stroke-dasharray:none;stroke-opacity:1"
             id="rect102"
             width="1.4146808"
             height="0.35697117"
             x="23.471308"
             y="97.045868"
             ry="0.17848559" /><rect
             style="fill:#9b562a;fill-opacity:1;stroke:none;stroke-width:0.531;stroke-linecap:round;stroke-linejoin:round;stroke-dasharray:none;stroke-opacity:1"
             id="rect103"
             width="1.4146808"
             height="0.35697117"
             x="23.471308"
             y="101.51893"
             ry="0.17848559" /></g></g><ellipse
         style="fill:#9b562a;fill-opacity:1;stroke:none;stroke-width:0.448718;stroke-linecap:round;stroke-linejoin:round;stroke-dasharray:none;stroke-opacity:1"
         id="path104"
         cx="60.242481"
         cy="105.95593"
         rx="3.4721205"
         ry="3.2495751" /><ellipse
         style="fill:#b37e58;fill-opacity:1;stroke:none;stroke-width:0.271994;stroke-linecap:round;stroke-linejoin:round;stroke-dasharray:none;stroke-opacity:1"
         id="ellipse104"
         cx="60.242481"
         cy="105.95593"
         rx="2.1046562"
         ry="1.9697584" /><ellipse
         style="fill:none;fill-opacity:1;stroke:#9b562a;stroke-width:2.44261;stroke-linecap:round;stroke-linejoin:round;stroke-dasharray:none;stroke-opacity:1"
         id="path105"
         cx="60.242481"
         cy="105.95593"
         rx="11.072603"
         ry="10.888459" /></g></g></svg>
